<mxfile host="app.diagrams.net" agent="Mozilla/5.0 (Macintosh; Intel Mac OS X 10_15_7) AppleWebKit/537.36 (KHTML, like Gecko) Chrome/135.0.0.0 Safari/537.36 Edg/135.0.0.0" version="26.2.14">
  <diagram name="第 1 页" id="xPDSucRW1evs9V_mcEcO">
    <mxGraphModel dx="1418" dy="706" grid="1" gridSize="10" guides="1" tooltips="1" connect="1" arrows="1" fold="1" page="1" pageScale="1" pageWidth="827" pageHeight="1169" math="0" shadow="0">
      <root>
        <mxCell id="0" />
        <mxCell id="1" parent="0" />
        <mxCell id="aE0F-NSxNU4pTJdEY-i2-1" value="" style="rounded=1;whiteSpace=wrap;html=1;fillColor=#dae8fc;strokeColor=#6c8ebf;" vertex="1" parent="1">
          <mxGeometry x="40" y="180" width="400" height="370" as="geometry" />
        </mxCell>
        <mxCell id="aE0F-NSxNU4pTJdEY-i2-2" value="知识库 - 建立用例到函数的映射关系" style="text;html=1;align=center;verticalAlign=middle;whiteSpace=wrap;rounded=0;" vertex="1" parent="1">
          <mxGeometry x="60" y="200" width="210" height="10" as="geometry" />
        </mxCell>
        <mxCell id="aE0F-NSxNU4pTJdEY-i2-3" value="&amp;nbsp;用例A" style="ellipse;whiteSpace=wrap;html=1;" vertex="1" parent="1">
          <mxGeometry x="70" y="290" width="90" height="40" as="geometry" />
        </mxCell>
        <mxCell id="aE0F-NSxNU4pTJdEY-i2-4" value="函数 A、B、C" style="ellipse;whiteSpace=wrap;html=1;" vertex="1" parent="1">
          <mxGeometry x="80" y="400" width="120" height="80" as="geometry" />
        </mxCell>
      </root>
    </mxGraphModel>
  </diagram>
</mxfile>
